<svg version="1.1" id="Layer_1" xmlns="http://www.w3.org/2000/svg" x="0" y="0" viewBox="0 0 1000 340.59" xml:space="preserve"><style>.st212{fill:#003764}</style><path class="st212" d="M385.18 8.49h57.19v5.86H417.2v66.28h-6.87V14.35h-25.16V8.49zm63.96 0h6.87v31.32h42.84V8.49h6.87v72.14h-6.87V45.67h-42.84v34.96h-6.87zm71.15 0h49.81v5.86h-42.94v26.07h40.21v5.86h-40.21v28.49h43.45v5.86h-50.32zM385.18 259.67h45.77v5.86h-38.9v26.07h34.56v5.86h-34.56v34.35h-6.87zm84.47-1.52c22.63 0 33.95 17.78 33.95 37.59 0 19.8-11.32 37.59-33.95 37.59-22.73 0-34.05-17.78-34.05-37.59 0-19.8 11.32-37.59 34.05-37.59m0 69.32c18.99 0 27.08-15.96 27.08-31.73 0-15.76-8.08-31.73-27.08-31.73-19.1 0-27.18 15.97-27.18 31.73s8.09 31.73 27.18 31.73m43.97-67.8h6.87v44.66c0 16.67 7.78 23.14 21.12 23.14 13.44 0 21.22-6.47 21.22-23.14v-44.66h6.87v46.18c0 14.85-7.98 27.48-28.09 27.48-19.9 0-27.99-12.63-27.99-27.48zm69.83 0h7.68l42.03 61.03h.2v-61.03h6.87v72.14h-7.68l-42.03-61.03h-.2v61.03h-6.87zm71.24 0h24.95c21.83.51 33.14 12.23 33.14 36.07 0 23.85-11.32 35.57-33.14 36.07h-24.95zm6.87 66.28h14.65c20.71 0 29.71-8.59 29.71-30.21s-8.99-30.21-29.71-30.21h-14.65zm83.47-66.28h7.68L781 331.81h-7.38l-8.79-22.43H732l-8.69 22.43h-7.38zm-10.91 43.85h28.39l-13.94-36.98zm38.81-43.85h57.19v5.86h-25.16v66.28h-6.87v-66.28h-25.16zm64.47 0h6.87v72.14h-6.87zm52.14-1.52c22.63 0 33.95 17.78 33.95 37.59 0 19.8-11.32 37.59-33.95 37.59-22.73 0-34.05-17.78-34.05-37.59 0-19.8 11.31-37.59 34.05-37.59m0 69.32c18.99 0 27.08-15.96 27.08-31.73 0-15.76-8.08-31.73-27.08-31.73-19.1 0-27.18 15.97-27.18 31.73s8.08 31.73 27.18 31.73m44.57-67.8h7.68l42.03 61.03h.2v-61.03h6.87v72.14h-7.68l-42.03-61.03h-.2v61.03h-6.87zM385.18 102.12h39.77v95.99h57.13v33.08h-96.9zm122.92 0h39.77V231.2H508.1zm69.41 0h40.67l37.6 69.06h.36v-69.06h37.6V231.2h-38.69l-39.59-70.5h-.36v70.5h-37.6V102.12zm263.2 79.18c0 35.97-18.98 52.97-58.75 52.97s-58.93-16.99-58.93-52.97v-79.18h39.77v70.32c0 13.02-.18 29.65 19.34 29.65 18.8 0 18.8-16.63 18.8-29.65v-70.32h39.77zm63.27-18.8-42.48-60.38h46.64l19.52 35.07 19.16-35.07h44.11l-41.4 60.74 46.1 68.33h-47.91l-22.05-38.51-22.78 38.51h-45.56z"/><path style="fill:#009ade" d="M69.38 266.91V137.14H4.37v194.67h194.75v-64.9z"/><path class="st212" d="M328.85 7.26H4.41v97.36h64.88V72.44h194.69v194.47h-32.4v64.9h97.27z"/></svg>
