<svg xmlns="http://www.w3.org/2000/svg" width="200" height="200" viewBox="0 0 200 200" version="1.1"><path d="M 58.906 76.750 C 58.016 79.093, 39.767 125.134, 38.295 128.750 C 37.916 129.681, 39.619 130, 44.973 130 L 52.161 130 53.732 126 L 55.303 122 64.902 122.010 L 74.500 122.020 76.176 126.010 L 77.851 130 84.842 130 C 88.687 130, 91.983 129.555, 92.167 129.010 C 92.383 128.369, 93.907 128.410, 96.495 129.125 C 104.239 131.265, 115.550 128.394, 121.750 122.713 L 124 120.651 124 125.326 L 124 130 130.500 130 L 137 130 137 120 L 137 110 148 110 L 159 110 159 103.500 L 159 97 148 97 L 137 97 137 92 L 137 87 148.500 87 L 160 87 160 80.500 L 160 74 142 74 L 124 74 124 78.619 L 124 83.237 120.750 80.775 C 115.929 77.122, 113.588 76.060, 108.027 75.005 C 97.560 73.020, 86.377 77.726, 80.403 86.629 C 78.806 89.009, 77.267 90.966, 76.983 90.978 C 76.698 90.990, 74.932 87.175, 73.058 82.500 L 69.651 74 64.801 74 C 60.429 74, 59.847 74.272, 58.906 76.750 M 96.020 88.752 C 83.728 94.927, 86.075 113.816, 99.500 116.753 C 101.700 117.235, 105.004 117.310, 106.841 116.922 C 110.348 116.180, 117 110.537, 117 108.304 C 117 107.480, 118.290 107, 120.500 107 C 123.981 107, 124 106.976, 124 102.500 C 124 98.201, 123.871 98, 121.099 98 C 118.845 98, 117.738 97.222, 116.138 94.509 C 112.010 87.512, 103.394 85.047, 96.020 88.752 M 62.397 103 L 60.295 109 64.756 109 C 68.916 109, 69.178 108.844, 68.637 106.692 C 68.005 104.173, 65.118 97, 64.736 97 C 64.606 97, 63.553 99.700, 62.397 103" stroke="none" fill="#f7fbfa" fill-rule="evenodd"/><path d="M 80.633 1.494 C 70.941 3.502, 64.702 5.681, 55.500 10.271 C 44.552 15.732, 39.812 19.100, 30.643 27.932 C 10.159 47.663, -0 71.555, 0 100 C 0 128.445, 10.159 152.337, 30.643 172.068 C 40.197 181.271, 45.171 184.725, 57.226 190.526 C 70.131 196.737, 79.853 199.089, 95.273 199.734 C 118.709 200.713, 138.527 195.250, 156.940 182.735 C 163.586 178.219, 176.552 165.426, 181.504 158.500 C 189.909 146.746, 197.016 129.901, 198.596 117.988 C 198.963 115.220, 199.654 112.714, 200.132 112.419 C 200.609 112.123, 201 106.032, 201 98.882 C 201 91.723, 200.607 86.125, 200.126 86.422 C 199.646 86.719, 198.955 84.716, 198.590 81.970 C 197.129 70.953, 190.296 54.184, 182.735 43.060 C 178.215 36.409, 165.429 23.452, 158.444 18.444 C 150.240 12.561, 135.221 5.468, 125.500 2.885 C 115.096 0.121, 90.884 -0.630, 80.633 1.494 M 58.906 76.750 C 58.016 79.093, 39.767 125.134, 38.295 128.750 C 37.916 129.681, 39.619 130, 44.973 130 L 52.161 130 53.732 126 L 55.303 122 64.902 122.010 L 74.500 122.020 76.176 126.010 L 77.851 130 84.842 130 C 88.687 130, 91.983 129.555, 92.167 129.010 C 92.383 128.369, 93.907 128.410, 96.495 129.125 C 104.239 131.265, 115.550 128.394, 121.750 122.713 L 124 120.651 124 125.326 L 124 130 130.500 130 L 137 130 137 120 L 137 110 148 110 L 159 110 159 103.500 L 159 97 148 97 L 137 97 137 92 L 137 87 148.500 87 L 160 87 160 80.500 L 160 74 142 74 L 124 74 124 78.619 L 124 83.237 120.750 80.775 C 115.929 77.122, 113.588 76.060, 108.027 75.005 C 97.560 73.020, 86.377 77.726, 80.403 86.629 C 78.806 89.009, 77.267 90.966, 76.983 90.978 C 76.698 90.990, 74.932 87.175, 73.058 82.500 L 69.651 74 64.801 74 C 60.429 74, 59.847 74.272, 58.906 76.750 M 0.392 100 C 0.392 107.425, 0.549 110.463, 0.742 106.750 C 0.934 103.037, 0.934 96.963, 0.742 93.250 C 0.549 89.537, 0.392 92.575, 0.392 100 M 96.020 88.752 C 83.728 94.927, 86.075 113.816, 99.500 116.753 C 101.700 117.235, 105.004 117.310, 106.841 116.922 C 110.348 116.180, 117 110.537, 117 108.304 C 117 107.480, 118.290 107, 120.500 107 C 123.981 107, 124 106.976, 124 102.500 C 124 98.201, 123.871 98, 121.099 98 C 118.845 98, 117.738 97.222, 116.138 94.509 C 112.010 87.512, 103.394 85.047, 96.020 88.752 M 62.397 103 L 60.295 109 64.756 109 C 68.916 109, 69.178 108.844, 68.637 106.692 C 68.005 104.173, 65.118 97, 64.736 97 C 64.606 97, 63.553 99.700, 62.397 103" stroke="none" fill="#3cecbc" fill-rule="evenodd"/></svg>