<svg width="100" height="100" viewBox="0 0 100 100" fill="none" xmlns="http://www.w3.org/2000/svg">
<path d="M85.3545 14.6435C76.3091 5.59534 63.8071 0 50.0024 0C36.1939 0 23.6938 5.59534 14.6455 14.6435C5.5954 23.6916 0 36.1935 0 50C0 63.8065 5.5954 76.3084 14.6436 85.3565C23.6919 94.4066 36.1939 100 50.0024 100C63.809 100 76.311 94.4018 85.3564 85.3565C94.4046 76.3065 100 63.8065 100 50C100 36.1935 94.4027 23.6916 85.3545 14.6435ZM83.7052 83.7034C75.0807 92.3288 63.1634 97.6642 50.0005 97.6642C36.8376 97.6642 24.9193 92.3288 16.2939 83.7034C7.66844 75.0781 2.333 63.1618 2.333 50C2.333 36.8372 7.66844 24.921 16.2939 16.2956C24.9193 7.67026 36.8357 2.33488 49.9986 2.33488C63.1615 2.33488 75.0778 7.67026 83.7033 16.2956C92.3287 24.921 97.6632 36.8372 97.6632 50C97.6651 63.1618 92.3297 75.079 83.7052 83.7034Z" fill="#35495C"/>
<path d="M93.0134 49.5858C92.7887 26.0218 73.619 6.98853 50.0024 6.98853C26.3839 6.98853 7.21231 26.0237 6.99139 49.5877L26.7143 29.865L33.3286 36.4793L18.8954 50.9123H81.1084L66.6752 36.4793L73.2895 29.865L93.0134 49.5858ZM50.0005 42.1946L31.6736 22.9632H43.8528V13.4837C43.8528 11.0231 46.62 9.00631 50.0005 9.00631C53.381 9.00631 56.1482 11.0212 56.1482 13.4837V22.9632H68.3274L50.0005 42.1946Z" fill="#35495C"/>
<path d="M55.3464 74.2065C54.3694 73.5714 53.1314 73 51.6383 72.5039C50.4966 72.1106 49.5567 71.7393 48.8235 71.3812C48.096 71.027 47.5589 70.6337 47.2152 70.2186C46.8628 69.7958 46.6981 69.2892 46.6981 68.7083C46.6981 68.2436 46.8381 67.8018 47.138 67.3837C47.4323 66.9667 47.8922 66.6191 48.5169 66.3563C49.1482 66.0897 49.9519 65.9459 50.9499 65.9411C51.7536 65.9449 52.4877 66.0097 53.1514 66.1249C53.8075 66.2439 54.3894 66.3877 54.8874 66.5524C55.3921 66.7229 55.7996 66.8838 56.1205 67.0352L57.2309 63.6872C56.5595 63.3501 55.7187 63.0701 54.6979 62.8435C53.8314 62.6521 52.8391 62.5416 51.7126 62.5035V59.0393H48.6607V62.6768C48.1712 62.7559 47.7018 62.8625 47.258 62.9911C46.1353 63.3225 45.1707 63.7824 44.3727 64.3833C43.5814 64.9813 42.9681 65.6812 42.5472 66.4829C42.1245 67.2847 41.9159 68.1684 41.9073 69.1187C41.9131 70.2186 42.2016 71.1879 42.7701 72.0249C43.3386 72.8629 44.1489 73.5895 45.1954 74.2122C46.2372 74.8331 47.4808 75.3682 48.9187 75.8187C49.9976 76.1643 50.8775 76.5252 51.5479 76.8956C52.2192 77.2641 52.7106 77.6708 53.0162 78.1145C53.3286 78.5582 53.4828 79.0724 53.4771 79.6476C53.4771 80.2789 53.2914 80.8265 52.9296 81.2997C52.5715 81.7663 52.0421 82.1329 51.346 82.3929C50.6499 82.6557 49.8005 82.7843 48.8044 82.7928C47.9941 82.7871 47.2085 82.7176 46.4419 82.5862C45.6811 82.4491 44.9669 82.272 44.3089 82.051C43.6442 81.8301 43.0634 81.5902 42.5587 81.3216L41.4855 84.8087C41.9711 85.0753 42.5768 85.3153 43.3186 85.5362C44.0604 85.759 44.8764 85.9362 45.7706 86.0714C46.6581 86.2028 47.5703 86.2694 48.4978 86.278L48.6607 86.2761V89.8575H51.7126V85.9885C52.1002 85.9133 52.4687 85.8238 52.8191 85.72C54.0437 85.3515 55.0607 84.8487 55.8654 84.205C56.6757 83.567 57.2756 82.8281 57.6737 81.9949C58.0698 81.1617 58.2679 80.2799 58.2679 79.341C58.2679 78.2411 58.0327 77.268 57.547 76.4309C57.0566 75.5863 56.3272 74.8464 55.3464 74.2065Z" fill="#35495C"/>
</svg>
