<svg width="81" height="81" viewBox="0 0 81 81" fill="none" xmlns="http://www.w3.org/2000/svg">
<path d="M12.8984 39.9091C12.8984 28.3957 21.8272 18.9971 33.9279 18.9971C41.0944 18.9971 45.5587 20.9943 49.6706 24.5188L44.1489 31.2153C41.0944 28.6307 38.2748 27.1034 33.693 27.1034C27.2314 27.1034 22.1796 32.7426 22.1796 39.5566V39.6741C22.1796 46.958 27.2314 52.3623 34.2804 52.3623C37.4524 52.3623 40.3895 51.5399 42.6217 50.0126V44.2559H33.693V36.6195H51.0804V54.007C46.9685 57.5315 41.3293 60.3511 33.9279 60.3511C21.5922 60.4686 12.8984 51.7749 12.8984 39.9091Z" fill="#252972"/>
<path d="M68 73.1559V9.24512" stroke="#FFAE1F" stroke-width="2.3229" stroke-miterlimit="10"/>
</svg>
