<svg width="100" height="100" viewBox="0 0 100 100" fill="none" xmlns="http://www.w3.org/2000/svg">
<path d="M92.1875 0H7.8125C3.49778 0 0 3.49778 0 7.8125V92.1875C0 96.5022 3.49778 100 7.8125 100H92.1875C96.5022 100 100 96.5022 100 92.1875V7.8125C100 3.49778 96.5022 0 92.1875 0Z" fill="black"/>
<path d="M12.7304 80.2734V73.5977L18.6432 72.4533V32.5896L12.7304 31.4453V24.7314H18.6432H35.1227L50.267 63.4506H50.4959L65.1443 24.7314H87.5748V31.4453L81.6238 32.5896V72.4533L87.5748 73.5977V80.2734H64.5721V73.5977L70.79 72.4533V61.8104L70.9809 36.7477L70.752 36.7096L54.158 79.5105H45.7275L28.7521 37.0529L28.5232 37.091L29.1717 60.6658V72.4533L35.733 73.5977V80.2734H12.7304Z" fill="white"/>
</svg>
