<svg width="100" height="101" viewBox="0 0 100 101" fill="none" xmlns="http://www.w3.org/2000/svg">
<path d="M87.4205 53.3203L91.0599 78.659L33.2323 78.3635C33.131 78.4846 33.0309 78.6053 32.929 78.7279C32.8283 78.848 32.727 78.9687 32.6269 79.0906C32.5256 79.2119 32.4266 79.3333 32.3253 79.4546C32.2258 79.5767 32.1251 79.6989 32.0263 79.8209C31.9368 79.9333 31.8467 80.0451 31.7567 80.1576C31.6666 80.2693 31.5771 80.3822 31.4877 80.4944C31.3982 80.6071 31.3094 80.7203 31.2199 80.8332C31.1317 80.9452 31.0416 81.0589 30.954 81.1714L93.3975 82.303L89.0689 53.1755L87.4205 53.3203Z" fill="#598C2E"/>
<path d="M37.502 73.3978C37.2912 73.6328 37.0808 73.8702 36.8707 74.1067C36.6621 74.3422 36.4536 74.5809 36.2438 74.8185C36.0365 75.0572 35.828 75.2948 35.6195 75.5352L86.8735 75.1408L83.6001 50.5853L83.2055 47.6132L81.0636 47.8495L84.0948 71.7603L38.1347 72.6931C37.9227 72.9276 37.7111 73.1619 37.502 73.3978Z" fill="#598C2E"/>
<path d="M76.5952 42.5896L73.3112 43.0237C72.973 43.2373 72.6358 43.4532 72.2976 43.6703C71.9624 43.8856 71.627 44.1035 71.2923 44.321C70.9565 44.5391 70.6236 44.7585 70.2888 44.9793C69.9565 45.1995 69.623 45.4225 69.2919 45.6467C68.8446 45.949 68.3967 46.2523 67.9531 46.5577C67.5083 46.864 67.0651 47.1718 66.6221 47.4827C66.1819 47.7935 65.7418 48.1077 65.3022 48.4226C64.8639 48.7367 64.4267 49.0551 63.9902 49.3746C63.6056 49.6568 63.2231 49.9399 62.8387 50.2248C62.4576 50.5085 62.0744 50.7935 61.6947 51.0823C61.315 51.3698 60.9347 51.6592 60.5573 51.9489C60.1794 52.2415 59.802 52.534 59.4266 52.8295C59.1823 53.0211 58.9378 53.2158 58.6938 53.4104C58.4513 53.604 58.2079 53.7981 57.9644 53.9939C57.7234 54.1888 57.4793 54.384 57.2365 54.5803C56.9953 54.7762 56.7531 54.9731 56.5131 55.17C56.4232 55.2455 56.3307 55.3197 56.2412 55.3975C56.1518 55.4731 56.0601 55.5499 55.9706 55.6271C55.8793 55.7043 55.7886 55.7813 55.6988 55.8566C55.6069 55.9344 55.5156 56.0094 55.4245 56.0868C55.1181 56.3409 54.8132 56.5976 54.5093 56.8539C54.206 57.1146 53.902 57.3713 53.6006 57.6319C53.2983 57.8929 52.9968 58.1537 52.6964 58.417C52.3949 58.678 52.0947 58.9417 51.7943 59.2062C50.8435 60.0462 49.8993 60.899 48.9616 61.7635C48.0268 62.6277 47.101 63.5014 46.1821 64.387C45.2656 65.272 44.357 66.1672 43.4573 67.0732C42.5598 67.9792 41.6706 68.8965 40.7897 69.8248L79.5815 68.5556L76.9187 45.4023L76.5952 42.5896Z" fill="#598C2E"/>
<mask id="mask0_5_56" style="mask-type:luminance" maskUnits="userSpaceOnUse" x="30" y="42" width="47" height="40">
<path d="M76.5952 42.5897L73.3112 43.0237C72.973 43.2373 72.6358 43.4532 72.2976 43.6703C71.9624 43.8856 71.627 44.1035 71.2923 44.321C70.9565 44.5392 70.6236 44.7585 70.2888 44.9793C69.9565 45.1995 69.623 45.4225 69.2919 45.6468C68.8446 45.949 68.3967 46.2523 67.9531 46.5577C67.5083 46.864 67.0651 47.1718 66.6221 47.4827C66.1819 47.7936 65.7418 48.1077 65.3023 48.4226C64.864 48.7367 64.4267 49.0552 63.9902 49.3746C63.6056 49.6569 63.2231 49.9399 62.8387 50.2249C62.4576 50.5086 62.0744 50.7935 61.6947 51.0823C61.315 51.3698 60.9347 51.6593 60.5573 51.9489C60.1794 52.2415 59.802 52.534 59.4266 52.8296C59.1823 53.0211 58.9379 53.2158 58.6938 53.4104C58.4514 53.604 58.2079 53.7981 57.9644 53.9939C57.7234 54.1888 57.4794 54.3841 57.2365 54.5803C56.9953 54.7762 56.7531 54.9731 56.5131 55.17C56.4232 55.2455 56.3307 55.3197 56.2412 55.3975C56.1518 55.4731 56.0601 55.5499 55.9706 55.6271C55.8793 55.7043 55.7886 55.7813 55.6988 55.8566C55.6069 55.9345 55.5156 56.0094 55.4245 56.0868C55.1181 56.3409 54.8132 56.5976 54.5093 56.854C54.206 57.1146 53.9021 57.3713 53.6006 57.6319C53.2983 57.8929 52.9969 58.1538 52.6964 58.417C52.395 58.678 52.0947 58.9417 51.7943 59.2062C50.8435 60.0463 49.8993 60.899 48.9616 61.7635C48.0268 62.6277 47.101 63.5014 46.1821 64.387C45.2657 65.272 44.357 66.1672 43.4573 67.0732C42.5599 67.9792 41.6495 68.8769 40.7897 69.8248C40.0922 70.594 39.3093 71.3425 38.1347 72.6932C37.0265 73.9674 36.7561 74.1917 35.6195 75.5352C34.9304 76.3499 33.9388 77.5096 33.2323 78.3636C31.8737 80.0055 30.954 81.1715 30.954 81.1715L37.7716 81.295C45.8543 70.1117 62.1757 53.3547 76.5952 42.5897Z" fill="white"/>
</mask>
<g mask="url(#mask0_5_56)">
<path d="M37.7716 81.295L30.954 81.1715C30.9595 81.1645 31.8776 80.0006 33.2323 78.3636L39.9517 78.3979C39.1717 79.398 38.4436 80.3654 37.7716 81.295Z" fill="#4B7229"/>
<path d="M35.6195 75.5352C35.828 75.2948 36.0365 75.0573 36.2438 74.8185C36.4501 74.5849 36.6554 74.35 36.8605 74.1182C37.2181 73.7242 37.5663 73.3468 38.1347 72.6932L44.7718 72.5584C43.9109 73.5516 43.0841 74.5279 42.2939 75.484L35.6195 75.5352Z" fill="#4B7229"/>
<path d="M40.7897 69.8248C41.6706 68.8965 42.5598 67.9793 43.4573 67.0733C44.357 66.1673 45.2656 65.2721 46.1821 64.3871C47.101 63.5015 48.0268 62.6277 48.9616 61.7636C49.8993 60.899 50.8435 60.0463 51.7943 59.2063C52.0947 58.9418 52.3949 58.6781 52.6964 58.4171C52.9968 58.1538 53.2983 57.893 53.6006 57.632C53.902 57.3713 54.206 57.1146 54.5093 56.854C54.8132 56.5977 55.1181 56.3409 55.4245 56.0869C55.5156 56.0095 55.6069 55.9345 55.6988 55.8567C55.7886 55.7813 55.8793 55.7043 55.9706 55.6271C56.0601 55.5499 56.1518 55.4731 56.2412 55.3975C56.3307 55.3197 56.4232 55.2456 56.5131 55.17C56.7531 54.9731 56.9953 54.7762 57.2365 54.5804C57.4793 54.3841 57.7234 54.1888 57.9644 53.994C58.2079 53.7981 58.4513 53.6041 58.6938 53.4105C58.9378 53.2158 59.1823 53.0212 59.4266 52.8296C59.802 52.5341 60.1794 52.2416 60.5573 51.9489C60.9347 51.6593 61.315 51.3699 61.6947 51.0823C62.0744 50.7935 62.4576 50.5086 62.8387 50.2249C63.2231 49.94 63.6056 49.6569 63.9902 49.3746C64.4267 49.0552 64.8639 48.7368 65.3022 48.4227C65.7418 48.1077 66.1819 47.7936 66.6221 47.4827C67.0651 47.1719 67.5083 46.8641 67.9531 46.5577C68.3967 46.2524 68.8446 45.9491 69.2919 45.6468C69.623 45.4225 69.9565 45.1995 70.2888 44.9793C70.6236 44.7586 70.9565 44.5392 71.2923 44.3211C71.627 44.1035 71.9624 43.8856 72.2976 43.6703C72.6358 43.4532 72.973 43.2374 73.3112 43.0237L76.5952 42.5897C66.6537 50.0117 55.8088 60.281 47.3824 69.6092L40.7897 69.8248Z" fill="#4B7229"/>
</g>
<path d="M94.2553 27.2294C92.3548 27.9379 90.4474 28.6754 88.5371 29.4411C86.6503 30.1966 84.7606 30.9789 82.8745 31.786C81.0114 32.5852 79.1503 33.4073 77.296 34.2547C77.2476 34.2751 77.2006 34.2964 77.1522 34.319C77.1054 34.3409 77.0574 34.364 77.0088 34.3868C76.9614 34.4097 76.9134 34.4322 76.8667 34.4555C76.8181 34.4781 76.7713 34.5006 76.7239 34.5237C75.2186 35.2153 73.7171 35.9234 72.2255 36.6472C70.7455 37.3647 69.2723 38.0977 67.8079 38.8446C66.3568 39.5852 64.9136 40.3411 63.4818 41.1111C62.0607 41.8742 60.6508 42.6501 59.253 43.4403C58.7542 43.7226 58.2571 44.0067 57.7608 44.2922C57.2674 44.5759 56.7751 44.8612 56.2845 45.1486C55.7942 45.4368 55.3076 45.7258 54.822 46.0166C54.3379 46.3062 53.8553 46.5975 53.3747 46.8916C52.9572 47.1444 52.542 47.4004 52.1266 47.6563C51.7138 47.9118 51.3008 48.1687 50.8891 48.4279C50.4787 48.6855 50.0694 48.9434 49.6618 49.2042C49.2559 49.4651 48.8495 49.7248 48.4457 49.9885C48.1761 50.1636 47.9084 50.3388 47.6394 50.5155C47.3716 50.6934 47.1038 50.8694 46.8361 51.0473C46.5702 51.2236 46.3042 51.4013 46.0383 51.5788C45.7728 51.7564 45.5093 51.9348 45.2444 52.1149C45.155 52.1774 45.063 52.2399 44.9726 52.3028C44.8825 52.3663 44.7918 52.4294 44.6995 52.4919C44.6094 52.5544 44.5181 52.6169 44.4277 52.6806C44.337 52.7425 44.2475 52.8052 44.1562 52.8671C43.8317 53.0926 43.5094 53.3179 43.1883 53.5446C42.8685 53.7705 42.548 53.9974 42.2298 54.2257C41.9118 54.452 41.5936 54.6802 41.2784 54.9099C40.9627 55.1385 40.6481 55.3677 40.3336 55.5982C38.2603 57.1239 36.2345 58.688 34.2631 60.295C32.3122 61.8859 30.4107 63.5202 28.5696 65.1974C26.7439 66.8594 24.9733 68.5701 23.2632 70.3247C21.5649 72.0696 19.9246 73.8624 18.3488 75.7098C18.2049 75.8771 18.0627 76.0444 17.92 76.2145C17.7778 76.3811 17.6355 76.5503 17.494 76.7192C17.3537 76.8883 17.2121 77.058 17.0723 77.2265C16.9324 77.3971 16.7944 77.5653 16.6552 77.7355C16.5486 77.8646 16.442 77.9951 16.3389 78.1264C16.2328 78.2571 16.128 78.3878 16.0238 78.5194C15.9195 78.6505 15.814 78.7808 15.7116 78.9115C15.6091 79.043 15.5066 79.1752 15.4036 79.3063C15.3467 79.2379 15.291 79.1719 15.2353 79.1055C15.1791 79.0385 15.1246 78.9738 15.07 78.9089C15.0149 78.8459 14.9604 78.7808 14.9065 78.7187C14.8526 78.6544 14.7998 78.5913 14.7466 78.5284C14.2129 77.897 13.7123 77.3178 13.2396 76.7778C12.7704 76.2429 12.3279 75.746 11.9055 75.2758C11.485 74.8095 11.0828 74.3698 10.6953 73.9472C10.3085 73.5271 9.93528 73.1216 9.5686 72.7217C9.47207 72.6196 9.37608 72.5157 9.28139 72.4111C9.18597 72.309 9.09182 72.206 8.99696 72.1023C8.90338 71.9987 8.80859 71.8958 8.71501 71.792C8.62206 71.6887 8.52896 71.5855 8.43722 71.4801C8.02904 71.0345 7.62327 70.5786 7.208 70.1029C6.79458 69.6301 6.37396 69.1352 5.93555 68.6095C5.50321 68.0846 5.05357 67.5293 4.58077 66.9253C4.1123 66.3277 3.62179 65.6864 3.10226 64.9871C2.86769 64.6725 2.6266 64.3462 2.38077 64.0081C2.13554 63.6703 1.88254 63.3223 1.62485 62.9598C1.36898 62.5999 1.10419 62.2269 0.832846 61.8395C0.562145 61.4547 0.284902 61.0562 0 60.643C0.561587 62.4573 1.09533 64.1664 1.61008 65.7889C2.13313 67.439 2.63432 68.9957 3.11884 70.4779C3.61111 71.9834 4.0874 73.41 4.55063 74.775C5.02093 76.1638 5.4812 77.4886 5.93794 78.7732C6.04407 79.0722 6.14891 79.3688 6.25485 79.665C6.36089 79.9605 6.46579 80.2542 6.57183 80.5484C6.67849 80.8407 6.78453 81.1308 6.89047 81.4217C6.99594 81.7131 7.10309 82.004 7.20976 82.2927C7.2578 82.4245 7.3087 82.5577 7.35671 82.6908C7.40587 82.8242 7.4562 82.9578 7.50536 83.0911C7.55458 83.2241 7.60428 83.3579 7.65462 83.4917C7.70384 83.625 7.75419 83.7606 7.80454 83.8936C7.85664 84.0315 7.90817 84.1701 7.96027 84.3058C8.01301 84.4448 8.06456 84.5829 8.11793 84.7216C8.17066 84.8601 8.22331 84.998 8.2755 85.1364C8.32879 85.2751 8.38089 85.4134 8.43481 85.5533C8.4728 85.6531 8.51005 85.7506 8.54796 85.8508C8.58823 85.9503 8.62494 86.0512 8.66466 86.1501C8.70265 86.2508 8.74221 86.3494 8.78131 86.4486C8.81929 86.5502 8.85894 86.6491 8.89866 86.7513C8.91463 86.7935 8.93059 86.8363 8.94725 86.8792C8.96329 86.9213 8.97981 86.9642 8.99696 87.0066C9.013 87.0489 9.0296 87.092 9.04555 87.1345C9.06271 87.1772 9.07987 87.2189 9.0959 87.2628C9.15039 87.3988 9.20313 87.535 9.2565 87.6719C9.3097 87.8087 9.36364 87.9468 9.41758 88.0839C9.47142 88.2221 9.52544 88.36 9.58106 88.4978C9.63498 88.6364 9.68892 88.7748 9.74278 88.9165L9.7055 89.0569L9.78785 89.0248C10.1118 89.8411 10.4418 90.6694 10.7842 91.5175C11.1277 92.373 11.4838 93.2491 11.8541 94.1533C12.2254 95.0658 12.6129 96.0056 13.0162 96.9857C13.4238 97.9751 13.8491 99.0022 14.2946 100.079C15.0397 98.7228 15.7998 97.3844 16.5752 96.0652C17.3501 94.7462 18.1385 93.4452 18.9424 92.1615C19.7463 90.8773 20.5654 89.6097 21.396 88.36C22.2296 87.1092 23.0741 85.8749 23.935 84.6568C23.9527 84.633 23.9693 84.6081 23.9864 84.5829C24.0042 84.5578 24.022 84.5324 24.0398 84.5074C24.0587 84.4842 24.0759 84.4589 24.0931 84.4338C24.1108 84.4093 24.1286 84.3836 24.1445 84.3603C24.3116 84.1258 24.4768 83.8926 24.6439 83.6603C24.8116 83.4267 24.9764 83.1953 25.1457 82.9649C25.3128 82.7327 25.4799 82.5013 25.648 82.2729C25.8163 82.0428 25.9864 81.8127 26.1545 81.583C26.3009 81.3855 26.4459 81.1892 26.5924 80.9952C26.7386 80.7989 26.8861 80.6045 27.0325 80.4102C27.1788 80.216 27.3281 80.0226 27.4739 79.8292C27.623 79.6366 27.7704 79.4429 27.9181 79.2489C27.9447 79.214 27.9724 79.1774 27.9992 79.1409C28.0253 79.107 28.0519 79.0718 28.0793 79.0351C28.1052 79.0004 28.1313 78.9648 28.1579 78.9305C28.1853 78.8952 28.2124 78.8609 28.2392 78.8272C28.4169 78.5945 28.5952 78.3656 28.7747 78.1327C28.954 77.9048 29.1336 77.675 29.3143 77.4471C29.4961 77.2171 29.6762 76.9904 29.8576 76.7625C30.04 76.5337 30.223 76.3082 30.4054 76.0836C30.589 75.8548 30.7732 75.6263 30.9574 75.401C31.1423 75.1729 31.3277 74.9455 31.5132 74.7202C31.6986 74.4933 31.8847 74.2687 32.0718 74.0426C32.2585 73.8185 32.4449 73.5932 32.6339 73.369C33.9645 71.7855 35.3193 70.2347 36.6952 68.7137C38.0761 67.1888 39.4795 65.6917 40.9047 64.2257C42.3358 62.7541 43.7871 61.3111 45.2587 59.9018C46.7397 58.4826 48.2394 57.0943 49.7565 55.7371C50.0492 55.4759 50.3431 55.2151 50.6368 54.9559C50.9307 54.6963 51.2244 54.4375 51.5196 54.1808C51.8163 53.9231 52.1113 53.6671 52.4099 53.4124C52.7066 53.1567 53.0034 52.9031 53.302 52.6518C53.3921 52.5765 53.4821 52.5001 53.5698 52.4241C53.658 52.3487 53.7481 52.2728 53.8357 52.1966C53.9239 52.1204 54.0128 52.044 54.1016 51.9684C54.1888 51.8919 54.2777 51.8181 54.3659 51.7446C54.601 51.5483 54.8373 51.3525 55.0738 51.1576C55.3095 50.965 55.5458 50.771 55.7833 50.5774C56.0203 50.3845 56.2578 50.1922 56.4965 50.001C56.7341 49.81 56.9728 49.6174 57.2116 49.4267C57.5794 49.1344 57.9479 48.8429 58.317 48.5562C58.686 48.2657 59.0569 47.9806 59.427 47.6957C59.7985 47.4096 60.1717 47.1277 60.5432 46.845C60.9164 46.5636 61.2913 46.2832 61.6657 46.0027C62.091 45.6857 62.5176 45.3716 62.9451 45.0587C63.3742 44.7462 63.8035 44.4356 64.233 44.1284C64.6642 43.8198 65.0974 43.5138 65.5298 43.2103C65.9634 42.9054 66.3982 42.6054 66.8341 42.3051C67.657 41.74 68.4815 41.1828 69.3079 40.6348C70.1395 40.0848 70.973 39.5438 71.8094 39.0125C72.6476 38.4793 73.4907 37.9537 74.3349 37.4397C75.1849 36.9246 76.036 36.4174 76.8891 35.9207C78.7657 34.829 80.6513 33.7841 82.5422 32.7915C84.4543 31.7879 86.3725 30.8342 88.2912 29.9366C90.2323 29.03 92.1765 28.1781 94.1184 27.385C96.0832 26.5846 98.0458 25.8432 100 25.1665C98.0956 25.8246 96.1786 26.5121 94.2553 27.2294Z" fill="#4697CD"/>
<path d="M13.0163 96.9857H13.0162ZM67.8079 38.8446C67.8079 38.8446 67.8079 38.8446 67.8081 38.8446C67.8079 38.8448 67.8081 38.8446 67.8079 38.8446ZM72.2008 36.6592C72.2089 36.6552 72.2171 36.6513 72.2255 36.6472C72.2171 36.6513 72.2089 36.6554 72.2008 36.6592Z" fill="#8BA0BB"/>
<path d="M14.2946 100.079C14.2935 100.076 14.2924 100.073 14.2913 100.071C13.8465 98.9957 13.0218 96.9992 13.0163 96.9857C13.0163 96.9857 13.0163 96.9857 13.0163 96.9857L11.693 93.7593C30.1861 63.3889 56.9718 45.9886 67.8079 38.8446C67.8081 38.8446 67.8079 38.8448 67.8081 38.8446C67.8173 38.8401 70.7155 37.3798 72.2008 36.6592C72.2089 36.6554 72.2171 36.6513 72.2255 36.6472C73.7171 35.9234 75.2187 35.2153 76.7239 34.5237C76.7713 34.5006 76.8181 34.4781 76.8667 34.4555C76.9135 34.4322 76.9615 34.4097 77.0089 34.3868C77.0575 34.364 77.1055 34.3409 77.1522 34.319C77.2006 34.2964 77.2476 34.2751 77.296 34.2547C79.1503 33.4073 81.0114 32.5852 82.8745 31.786C84.7607 30.9789 86.6503 30.1966 88.5371 29.4411C90.4474 28.6754 92.3548 27.9379 94.2553 27.2294C96.1787 26.5121 98.0957 25.8246 100 25.1665C98.0458 25.8432 96.0833 26.5846 94.1185 27.385C92.1765 28.1781 90.2323 29.03 88.2912 29.9366C86.3726 30.8342 84.4543 31.7879 82.5422 32.7915C80.6513 33.7841 78.7658 34.829 76.8892 35.9207C76.0361 36.4174 75.185 36.9246 74.3349 37.4397C73.4908 37.9537 72.6477 38.4793 71.8094 39.0125C70.9731 39.5438 70.1396 40.0848 69.3079 40.6348C68.4815 41.1828 67.657 41.74 66.8341 42.3051C66.3983 42.6054 65.9634 42.9054 65.5298 43.2103C65.0974 43.5138 64.6642 43.8198 64.2331 44.1284C63.8036 44.4356 63.3742 44.7462 62.9451 45.0587C62.5176 45.3716 62.091 45.6857 61.6657 46.0027C61.2914 46.2832 60.9164 46.5636 60.5432 46.845C60.1717 47.1277 59.7986 47.4096 59.427 47.6957C59.057 47.9806 58.6861 48.2657 58.317 48.5562C57.9479 48.8429 57.5795 49.1344 57.2116 49.4267C56.9729 49.6174 56.7341 49.81 56.4966 50.001C56.2578 50.1922 56.0203 50.3845 55.7834 50.5774C55.5458 50.771 55.3095 50.965 55.0738 51.1576C54.8373 51.3525 54.601 51.5483 54.3659 51.7446C54.2777 51.8181 54.1888 51.8919 54.1016 51.9684C54.0128 52.044 53.9239 52.1204 53.8357 52.1966C53.7481 52.2728 53.658 52.3487 53.5698 52.4241C53.4822 52.5001 53.3921 52.5765 53.302 52.6518C53.0034 52.9031 52.7066 53.1567 52.4099 53.4124C52.1113 53.6671 51.8164 53.9231 51.5196 54.1808C51.2245 54.4375 50.9308 54.6963 50.6369 54.9559C50.3432 55.2151 50.0492 55.4759 49.7566 55.7371C48.2395 57.0943 46.7397 58.4826 45.2587 59.9018C43.7872 61.3111 42.3358 62.7541 40.9047 64.2257C39.4795 65.6917 38.0761 67.1888 36.6953 68.7137C35.3193 70.2347 33.9645 71.7855 32.6339 73.369C32.445 73.5932 32.2585 73.8185 32.0718 74.0426C31.8847 74.2687 31.6987 74.4933 31.5132 74.7202C31.3278 74.9455 31.1423 75.1729 30.9575 75.401C30.7732 75.6263 30.589 75.8548 30.4054 76.0836C30.223 76.3082 30.04 76.5337 29.8576 76.7625C29.6763 76.9904 29.4961 77.2171 29.3143 77.4471C29.1336 77.675 28.9541 77.9048 28.7747 78.1327C28.5952 78.3656 28.4169 78.5945 28.2392 78.8272C28.2125 78.8609 28.1853 78.8952 28.1579 78.9305C28.1314 78.9648 28.1052 79.0004 28.0793 79.0351C28.0519 79.0718 28.0254 79.107 27.9992 79.1409C27.9725 79.1774 27.9447 79.214 27.9181 79.2489C27.7705 79.4429 27.623 79.6366 27.4739 79.8292C27.3281 80.0226 27.1788 80.216 27.0325 80.4102C26.8861 80.6045 26.7386 80.7989 26.5924 80.9952C26.446 81.1892 26.301 81.3855 26.1545 81.583C25.9864 81.8127 25.8163 82.0428 25.648 82.2729C25.4799 82.5013 25.3128 82.7327 25.1458 82.9649C24.9764 83.1953 24.8116 83.4267 24.6439 83.6603C24.4769 83.8926 24.3116 84.1258 24.1446 84.3603C24.1286 84.3836 24.1109 84.4093 24.0931 84.4338C24.0759 84.4589 24.0588 84.4842 24.0398 84.5074C24.022 84.5324 24.0042 84.5578 23.9865 84.5829C23.9693 84.6081 23.9528 84.633 23.935 84.6568C23.0741 85.8749 22.2296 87.1092 21.3961 88.36C20.5654 89.6097 19.7463 90.8773 18.9424 92.1615C18.1385 93.4452 17.3501 94.7462 16.5753 96.0652C15.7999 97.3844 15.0398 98.7228 14.2946 100.079Z" fill="#387CAB"/>
<path d="M29.5833 27.3195L29.8 20.4255C29.8455 18.9919 30.1703 17.5597 30.7195 16.1938C31.265 14.8311 32.035 13.5257 32.977 12.3428C33.9224 11.1573 35.0431 10.0875 36.29 9.20111C37.5477 8.30694 38.9411 7.59597 40.4184 7.13826C41.9153 6.67361 43.3642 6.51389 44.707 6.62357C46.0685 6.73631 47.323 7.12867 48.4024 7.77081C49.4965 8.42295 50.4111 9.3306 51.0723 10.459C51.741 11.6044 52.1468 12.9735 52.2156 14.5241L52.5408 22.0012L29.5833 27.3195ZM72.9131 21.9759C72.8425 21.336 72.6252 20.7631 72.2929 20.2733C71.9634 19.7845 71.5223 19.3818 71.0002 19.0793C70.4833 18.7782 69.8855 18.5779 69.2421 18.4937C68.6036 18.4098 67.9176 18.4404 67.2133 18.6042L62.2758 19.7462L62.2676 19.6263L60.6159 20.0098L60.0816 12.4522C59.9017 9.89268 59.1468 7.65949 57.955 5.82008C56.7933 4.02275 55.22 2.60776 53.3665 1.62352C51.5592 0.663781 49.4863 0.114972 47.2621 0.0163233C45.091 -0.0804877 42.77 0.252431 40.3953 1.05143C38.0683 1.83429 35.8891 2.99929 33.929 4.43185C31.9923 5.84623 30.2544 7.53246 28.787 9.38861C27.3252 11.2393 26.1202 13.2731 25.2548 15.395C24.3833 17.5279 23.8455 19.7694 23.7293 22.0245L23.3894 28.6505L22.3652 28.8878L22.3592 28.992L18.3927 29.9115C17.9365 30.0161 17.497 30.2207 17.0912 30.4981C16.6861 30.7763 16.3146 31.1261 15.9959 31.5291C15.6772 31.9302 15.4095 32.3841 15.2104 32.8638C15.0132 33.3461 14.884 33.8573 14.8437 34.3726L12.1271 69.4281L15.089 72.7794L15.772 60.1976C15.8425 58.8986 16.1191 57.6497 16.5558 56.4996C16.9929 55.354 17.5905 54.3019 18.3121 53.3955C19.033 52.4864 19.88 51.7183 20.8119 51.1444C21.7496 50.5674 22.7773 50.1834 23.8574 50.0486L25.19 49.8799C24.6482 49.7032 24.1523 49.4295 23.7152 49.0744C23.2798 48.7222 22.9042 48.2892 22.5996 47.7907C22.2957 47.2956 22.0641 46.7337 21.9142 46.1235C21.7663 45.5154 21.6987 44.8576 21.7259 44.1627C21.762 43.2663 21.9499 42.3926 22.2598 41.5782C22.5678 40.7656 22.9983 40.0091 23.5214 39.3463C24.0438 38.6821 24.66 38.1102 25.3412 37.668C26.0254 37.2234 26.7748 36.9101 27.5631 36.764H27.5674H27.5709L27.5744 36.7628L27.578 36.7626C28.373 36.6166 29.1325 36.658 29.8255 36.8594C30.5244 37.0614 31.1572 37.4272 31.6903 37.926C32.2282 38.4298 32.6635 39.0699 32.9639 39.8177C33.2691 40.5695 33.4349 41.43 33.43 42.3676C33.4259 43.0966 33.3193 43.8165 33.1238 44.5073C32.9284 45.2009 32.6447 45.8628 32.2881 46.4739C31.9315 47.0859 31.5019 47.6449 31.0167 48.1318C30.5334 48.6183 29.9955 49.0313 29.4185 49.3538L30.5908 49.2043C31.4035 49.1023 32.1937 49.136 32.9443 49.2921C33.7031 49.4485 34.4234 49.7281 35.0876 50.117C35.7582 50.5085 36.3725 51.0106 36.915 51.6086C37.4074 52.1527 37.8296 52.7867 38.1886 53.4776C38.4926 53.2446 38.7959 53.013 39.0979 52.7895L39.0493 48.6587C39.0387 47.6927 39.2058 46.7556 39.5162 45.8839C39.8271 45.0144 40.2821 44.2093 40.8491 43.5053C41.4171 42.8013 42.0995 42.1994 42.8631 41.7374C43.6313 41.2721 44.4826 40.9504 45.3896 40.8125L46.5032 40.6418C46.0383 40.5301 45.6051 40.3432 45.2189 40.0928C44.8333 39.8453 44.4932 39.5348 44.2095 39.1727C43.9277 38.8116 43.7007 38.399 43.5418 37.9458C43.3838 37.4946 43.2925 37.0012 43.279 36.4767C43.2624 35.8021 43.3772 35.1381 43.6001 34.5145C43.8217 33.8914 44.1521 33.3079 44.5645 32.7926C44.9773 32.2762 45.476 31.8283 46.0346 31.478C46.5957 31.1251 47.2182 30.8708 47.8806 30.7428C48.5486 30.6151 49.1914 30.6306 49.7855 30.7663C50.3844 30.9031 50.9313 31.1631 51.4021 31.5271C51.8749 31.8918 52.2689 32.36 52.5549 32.911C52.8422 33.4653 53.0199 34.104 53.0579 34.8023C53.0863 35.3452 53.0305 35.8838 52.8984 36.4036C52.7671 36.9219 52.5602 37.4215 52.2902 37.8845C52.0212 38.3479 51.6889 38.7746 51.3073 39.1498C50.927 39.5256 50.4959 39.8489 50.029 40.1069L51.0018 39.9621C51.5177 39.8832 52.0265 39.8649 52.5189 39.901C53.0146 39.9388 53.4956 40.0309 53.9582 40.1741C54.4198 40.3189 54.8622 40.5135 55.2764 40.7558C55.6935 40.9998 56.0813 41.2903 56.4373 41.6218C56.3272 41.6849 56.2212 41.7537 56.1134 41.8164C56.2508 41.8197 56.3871 41.8217 56.5239 41.8276C57.0208 41.5321 57.4977 41.2521 57.9877 40.9631L57.8656 39.1247C57.8157 38.3943 57.9195 37.6774 58.1476 37.0063C58.3737 36.3351 58.7263 35.7079 59.177 35.1542C59.6286 34.6021 60.1782 34.1232 60.8038 33.7513C61.4298 33.3775 62.1336 33.1104 62.8877 32.9823L63.8113 32.8297C63.4197 32.756 63.0519 32.6232 62.7196 32.4417C62.3871 32.2597 62.0903 32.0303 61.8381 31.7577C61.5869 31.4862 61.382 31.1741 61.2309 30.829C61.0797 30.4846 60.9844 30.107 60.9525 29.704C60.911 29.1828 60.9827 28.6667 61.1461 28.1808C61.3097 27.6957 61.565 27.2384 61.8943 26.8334C62.2237 26.4271 62.6265 26.0738 63.085 25.7944C63.5447 25.5131 64.0582 25.3073 64.6115 25.2009C65.1642 25.0951 65.7028 25.0987 66.2038 25.1951C66.7056 25.2942 67.1688 25.4888 67.571 25.7609C67.975 26.0356 68.3144 26.3896 68.5675 26.8089C68.8209 27.2294 68.9868 27.7137 69.0372 28.2465C69.0781 28.6601 69.0479 29.0696 68.9543 29.4663C68.8624 29.8623 68.7084 30.2452 68.5017 30.6021C68.2938 30.9597 68.0342 31.2899 67.7321 31.5828C67.4319 31.8773 67.0884 32.1322 66.7103 32.3369L67.4989 32.2031C67.9609 32.1263 68.4135 32.1026 68.8536 32.129C69.2954 32.1559 69.7214 32.2313 70.1295 32.3518C70.5353 32.4737 70.9234 32.6396 71.2823 32.8475C71.3942 32.9126 71.4961 32.9858 71.6021 33.0585L71.6176 33.0495C71.7735 32.9713 71.9322 32.8922 72.088 32.816C72.4138 32.6553 72.7377 32.4962 73.0575 32.3402C73.3776 32.1821 73.695 32.0283 74.0083 31.8773L72.9131 21.9759Z" fill="#414042"/>
</svg>
