<svg width="169" height="100" viewBox="0 0 169 100" fill="none" xmlns="http://www.w3.org/2000/svg">
<path fill-rule="evenodd" clip-rule="evenodd" d="M15.6882 0H152.438C161.059 0 168.081 7.02532 168.081 15.6514V67.8523C168.081 76.4784 161.059 83.5037 152.438 83.5037H103.374L110.084 100L80.4411 83.5037H15.6438C7.02191 83.5037 0 76.4784 0 67.8523V15.6514C0 7.02532 7.02191 0 15.6882 0Z" fill="#7F54B3"/>
<path d="M8.48846 14.2185C9.55521 12.929 11.1107 12.1286 12.7995 12.0842C16.2659 11.8619 18.2659 13.507 18.7992 17.0198C20.9325 31.3372 23.2435 43.5204 25.6878 53.5248L40.7539 24.8899C42.1317 22.3109 43.8204 20.9325 45.9093 20.7993C48.9314 20.577 50.7979 22.4888 51.5535 26.5796C52.9756 34.5832 55.1533 42.4533 58.042 50.0567C59.8641 32.6267 62.8862 19.9989 67.1084 12.2177C67.9528 10.4391 69.6859 9.28296 71.6414 9.19411C73.197 9.06066 74.7525 9.54986 75.9525 10.5725C77.1968 11.5061 77.9524 12.9736 78.0412 14.5297C78.1302 15.6858 77.9078 16.8419 77.3746 17.8201C74.7079 22.8002 72.4858 31.0704 70.7527 42.6312C69.0638 53.7917 68.3972 62.551 68.8416 68.8206C69.0194 70.3769 68.7082 71.933 68.0416 73.3114C67.375 74.7342 65.9529 75.7125 64.3973 75.8015C62.5752 75.9348 60.7975 75.09 58.9754 73.267C52.5756 66.7307 47.5092 56.9931 43.776 44.054C39.3762 52.8579 36.0429 59.483 33.8652 63.8406C29.821 71.6218 26.3545 75.5792 23.5102 75.8015C21.6435 75.9348 20.0436 74.3786 18.7548 71.0882C15.2438 62.1064 11.4661 44.7209 7.4219 18.9316C7.06632 17.2421 7.4663 15.5525 8.48846 14.2185Z" fill="white"/>
<path d="M113.062 24.9889C110.751 20.8537 106.752 17.919 102.085 17.0298C100.841 16.763 99.5962 16.6296 98.3519 16.6296C91.7744 16.6296 86.3968 20.0533 82.2192 26.9007C78.6637 32.7255 76.7972 39.4397 76.8862 46.2427C76.8862 51.5339 77.9971 56.0693 80.1749 59.8488C82.486 63.984 86.4858 66.9185 91.1522 67.8079C92.3965 68.0746 93.6409 68.2081 94.8854 68.2081C101.507 68.2081 106.885 64.7844 111.018 57.9367C114.573 52.0675 116.44 45.3535 116.351 38.4615C116.351 33.1703 115.24 28.6793 113.062 24.9889ZM104.396 44.064C103.463 48.5549 101.73 51.9341 99.1519 54.2463C97.1519 56.0693 95.2854 56.7808 93.5965 56.4695C91.9078 56.1581 90.5744 54.6465 89.5523 52.0231C88.7967 50.0222 88.3523 47.9323 88.3523 45.7535C88.3523 44.064 88.5301 42.3744 88.8411 40.7291C89.5079 37.7946 90.7078 35.0378 92.4855 32.5477C94.752 29.213 97.1519 27.7901 99.6407 28.3236C101.33 28.6793 102.663 30.1466 103.685 32.7701C104.44 34.771 104.885 36.8608 104.885 38.9951C104.885 40.6847 104.752 42.3744 104.396 44.064Z" fill="white"/>
<path d="M156.082 24.9889C153.772 20.8537 149.772 17.919 145.105 17.0298C143.861 16.763 142.617 16.6296 141.371 16.6296C134.795 16.6296 129.417 20.0533 125.239 26.9007C121.684 32.7255 119.817 39.4397 119.906 46.2427C119.906 51.5339 121.017 56.0693 123.195 59.8488C125.506 63.984 129.507 66.9185 134.172 67.8079C135.417 68.0746 136.661 68.2081 137.905 68.2081C144.528 68.2081 149.905 64.7844 154.038 57.9367C157.594 52.0675 159.46 45.3535 159.371 38.4615C159.371 33.1703 158.26 28.6793 156.082 24.9889ZM147.417 44.064C146.482 48.5549 144.749 51.9341 142.171 54.2463C140.172 56.0693 138.306 56.7808 136.616 56.4695C134.928 56.1583 133.594 54.6465 132.572 52.0231C131.817 50.0222 131.373 47.9323 131.373 45.7535C131.373 44.064 131.551 42.3744 131.862 40.7291C132.528 37.7946 133.728 35.0378 135.505 32.5477C137.772 29.213 140.172 27.7901 142.66 28.3236C144.35 28.6793 145.682 30.1466 146.705 32.7701C147.46 34.771 147.906 36.8608 147.906 38.9951C147.906 40.6847 147.771 42.3744 147.417 44.064Z" fill="white"/>
</svg>
