<svg xmlns="http://www.w3.org/2000/svg" viewBox="-3.22 -3.22 167.31 54.19"><path fill="#fff" d="M9.59 38.302v-19.15H0v28.712h28.74v-9.562H9.59z"/><path fill="#fff" d="M47.864 0H0v14.37h9.59V9.616h28.712v28.686h-4.78v9.562h14.342V0zM65 36.05V12h16.001v1.936H67.274v8.685h12.391v1.936H67.274v9.554h14.061v1.936H65v.003zM83.271 18.75h2.17l5.61 14.83 5.61-14.83h2.17L92.117 36.05H89.88L83.267 18.75h.004zm19.773 9.12c0 .933.122 1.82.366 2.654.244.836.607 1.558 1.085 2.169a5.188 5.188 0 0 0 1.821 1.469c.736.366 1.58.553 2.539.553 1.315 0 2.439-.345 3.373-1.034.934-.69 1.559-1.67 1.871-2.938h2.238a10.741 10.741 0 0 1-.97 2.288 7.023 7.023 0 0 1-1.505 1.835c-.6.524-1.315.93-2.137 1.218-.823.29-1.782.434-2.873.434-1.383 0-2.572-.233-3.574-.7-1.002-.467-1.825-1.106-2.471-1.922-.647-.812-1.125-1.77-1.437-2.873-.313-1.103-.467-2.288-.467-3.56 0-1.271.183-2.46.553-3.573.367-1.114.891-2.087 1.57-2.924s1.508-1.49 2.489-1.972c.98-.478 2.094-.718 3.34-.718 2.381 0 4.253.819 5.61 2.453 1.358 1.638 2.026 4.015 2.005 7.133h-13.43l.004.007zm11.289-1.67c0-.849-.119-1.642-.352-2.39a5.579 5.579 0 0 0-1.035-1.935 4.939 4.939 0 0 0-1.72-1.304c-.69-.323-1.48-.485-2.371-.485s-1.677.165-2.356.503a5.445 5.445 0 0 0-1.738 1.336 6.795 6.795 0 0 0-1.153 1.936 8.988 8.988 0 0 0-.568 2.338h11.293zm8.052 9.851h-2.004V18.75h2.004v2.406c.801-.847 1.631-1.537 2.489-2.072.859-.535 1.886-.801 3.089-.801 1.071 0 2.058.183 2.974.55.913.366 1.681 1.009 2.306 1.921.424.625.675 1.264.751 1.922.079.657.118 1.343.118 2.054v11.325h-2.004V24.765c0-1.559-.345-2.726-1.034-3.51-.69-.778-1.839-1.166-3.441-1.166-.625 0-1.193.093-1.703.283-.513.19-.973.438-1.386.751a5.013 5.013 0 0 0-1.052 1.07 4.905 4.905 0 0 0-.669 1.268 6.285 6.285 0 0 0-.366 1.602c-.043.514-.068 1.07-.068 1.67v9.32l-.004-.003zm22.646.068c-.244.044-.567.123-.97.234a5.001 5.001 0 0 1-1.336.165c-1.002 0-1.763-.251-2.288-.75-.524-.503-.786-1.398-.786-2.69V20.414h-2.439v-1.67h2.439v-4.81h2.004v4.81h3.24v1.67h-3.24v11.86c0 .424.011.79.032 1.103.022.313.09.568.201.769a.962.962 0 0 0 .517.434c.234.09.564.133.985.133.265 0 .538-.021.818-.068.277-.043.55-.1.819-.165v1.638h.004zm4.375-5.48c.312 1.494.873 2.542 1.688 3.157.812.614 1.976.92 3.491.92.737 0 1.369-.09 1.904-.267.535-.18.973-.416 1.318-.718.345-.302.607-.64.787-1.02.179-.377.265-.78.265-1.203 0-.848-.273-1.477-.818-1.886-.546-.413-1.232-.736-2.055-.97a26.094 26.094 0 0 0-2.672-.6 12.903 12.903 0 0 1-2.672-.75c-.823-.334-1.509-.812-2.055-1.437-.546-.621-.819-1.501-.819-2.64 0-1.447.528-2.633 1.588-3.556 1.056-.923 2.553-1.386 4.493-1.386 1.94 0 3.391.417 4.558 1.253 1.167.837 1.875 2.234 2.123 4.192h-2.037c-.179-1.336-.686-2.277-1.519-2.823-.837-.546-1.886-.819-3.157-.819-1.272 0-2.238.273-2.906.819-.668.546-1.002 1.264-1.002 2.155 0 .78.273 1.376.819 1.789.546.413 1.232.747 2.054 1.002.823.255 1.713.485 2.672.686.959.2 1.85.485 2.673.851.822.366 1.508.862 2.054 1.487.546.625.819 1.49.819 2.604 0 .822-.179 1.555-.535 2.187a4.67 4.67 0 0 1-1.469 1.588c-.625.424-1.365.74-2.22.952-.858.212-1.799.316-2.823.316-1.023 0-1.932-.151-2.722-.45-.791-.3-1.466-.718-2.023-1.253a5.78 5.78 0 0 1-1.303-1.871 6.581 6.581 0 0 1-.535-2.306h2.036v-.004z"/></svg>