<svg version="1.1" id="Layer_1" xmlns="http://www.w3.org/2000/svg" x="0" y="0" viewBox="0 0 339 111.5" xml:space="preserve"><style>.st0{fill:#fff}</style><path class="st0" d="M130.2.4h19.6v2h-8.6v22.7h-2.3V2.4h-8.6zm21.9 0h2.3v10.7h14.7V.4h2.3v24.7h-2.3v-12h-14.7v12h-2.3zm24.4 0h17v2h-14.7v8.9h13.8v2h-13.8V23h14.9v2h-17.2zm-46.3 85.9h15.7v2h-13.3v8.9h11.8v2h-11.8V111h-2.3zm28.9-.5c7.7 0 11.6 6.1 11.6 12.9s-3.9 12.9-11.6 12.9c-7.8 0-11.6-6.1-11.6-12.9s3.9-12.9 11.6-12.9m0 23.7c6.5 0 9.3-5.5 9.3-10.9s-2.8-10.9-9.3-10.9-9.3 5.5-9.3 10.9c0 5.5 2.8 10.9 9.3 10.9m15.1-23.2h2.3v15.3c0 5.7 2.7 7.9 7.2 7.9 4.6 0 7.3-2.2 7.3-7.9V86.3h2.4v15.8c0 5.1-2.7 9.4-9.6 9.4-6.8 0-9.6-4.3-9.6-9.4zm23.9 0h2.6l14.4 20.9h.1V86.3h2.4V111H215l-14.4-20.9h-.1V111h-2.4zm24.3 0h8.5c7.5.2 11.3 4.2 11.3 12.3 0 8.2-3.9 12.2-11.3 12.3h-8.5zm2.4 22.7h5c7.1 0 10.2-2.9 10.2-10.3s-3.1-10.3-10.2-10.3h-5zm28.5-22.7h2.6l9.7 24.7h-2.5l-3-7.7h-11.2l-3 7.7h-2.5zm-3.7 15h9.7l-4.8-12.6zm13.3-15h19.6v2h-8.6V111h-2.4V88.3h-8.6zm22 0h2.4V111h-2.4zm17.8-.5c7.7 0 11.6 6.1 11.6 12.9s-3.9 12.9-11.6 12.9c-7.8 0-11.6-6.1-11.6-12.9s3.9-12.9 11.6-12.9m0 23.7c6.5 0 9.3-5.5 9.3-10.9s-2.8-10.9-9.3-10.9-9.3 5.5-9.3 10.9c.1 5.5 2.8 10.9 9.3 10.9M318 86.3h2.6l14.4 20.9h.1V86.3h2.4V111h-2.6l-14.4-20.9h-.1V111H318zM130.2 32.4h13.6v32.8h19.5v11.3h-33.1zm42.1 0h13.6v44.1h-13.6zm23.7 0h13.9L222.8 56h.1V32.4h12.9v44.1h-13.2l-13.6-24h-.1v24.1H196zm90.1 27.1c0 12.3-6.5 18.1-20.1 18.1s-20.2-5.8-20.2-18.1V32.4h13.6v24.1c0 4.5-.1 10.1 6.6 10.1 6.4 0 6.4-5.7 6.4-10.1V32.4H286v27.1zm21.6-6.4-14.5-20.7h16l6.7 12 6.6-12h15.1l-14.2 20.8L339 76.6h-16.4l-7.5-13.2-7.8 13.2h-15.6z"/><path style="opacity:.8;fill:#fff" d="M22.2 88.8V44.4H0V111h66.6V88.8z"/><path class="st0" d="M111 0H0v33.3h22.2v-11h66.6v66.5H77.7V111H111z"/></svg>
