<svg xmlns="http://www.w3.org/2000/svg" role="img" viewBox="-33.54 -33.54 1744.08 188.08"><g fill="#fff"><path d="M19.94 81.97V42.16H0v59.72h59.74V81.97h-39.8z" opacity=".75"/><path d="M99.54 2.32H.01v29.86h19.9v-9.87h59.73v59.66H69.7v19.91h29.84V2.32z"/></g><path fill="#fff" d="M1362.63 86.22h15.44v14.05c0 10.57-4.59003 18.63-15.29999 21.83v-6.95c6.12-2.23 8.47998-8.9 8.07-13.49h-8.2V86.22h-.01001zm76.62-83.85H1452.46v88.16h52.57001v11.13h-65.77997V2.37h-.00006zm77.32 0h13.21002v88.16h52.57v11.13H1516.57V2.37zm147.13 29.9c-2.91998-14.05-13.90997-21.14-27.81-21.14-23.64 0-33.65002 19.47-33.65002 40.19 0 22.67 10.01001 41.58 33.78998 41.58 17.24 0 27.53998-12.24 28.65002-28.65h13.21003c-2.64002 24.89-17.8 39.77-42.97004 39.77-30.72997 0-45.89001-22.81-45.89001-51.73 0-28.93 16.40997-52.29 47-52.29 20.71997 0 37.96002 11.13 40.89001 32.26H1663.7v.01zM134.73667 2.07656h21.99424V83.6085h48.75112v18.49198h-70.74536V2.07657zm83.28856 0h70.32525v18.49148h-48.331v23.11521h41.88693v17.09077h-41.88693v41.32645h-21.99425V2.07657zm164.94537 0c30.24965 0 48.04354 22.58438 48.04354 51.60213 0 28.1968-17.79389 50.78069-48.04354 50.78069-30.24917 0-48.04306-22.5839-48.04306-50.7807 0-29.01774 17.79389-51.60212 48.04306-51.60212zm0 84.31512c19.2996 0 26.55392-16.42483 26.55392-32.713 0-17.1096-7.25432-33.53442-26.55392-33.53442S356.41667 36.5691 356.41667 53.6787c0 16.28816 7.25432 32.71299 26.55392 32.71299zm62.89373-84.31512h45.10896c24.93604 0 34.60264 15.82993 34.60264 32.08047s-9.6666 32.08046-34.60264 32.08046h-23.11472v35.86298h-21.99424V2.07657zm21.99424 47.07016h17.09077c10.22708 0 19.3322-2.24143 19.3322-14.9897s-9.10512-14.9897-19.3322-14.9897h-17.09077v29.9794zm70.56686-47.07016h74.80712v18.49148h-52.81387V42.0018h48.47137v17.09127h-48.47137v24.51542h53.93484v18.49198h-75.9281V2.07657zm89.92458 0h21.85388l41.74656 67.10272h.27974V2.07656h20.59354v100.0239h-21.99425l-41.6062-66.96284h-.28073v66.96285H628.35V2.07657zm156.54486 67.58808c0 13.01371 10.138 18.08271 21.64473 18.08271 7.53487 0 19.0416-2.19231 19.0416-12.19207 0-10.54882-14.65794-12.32935-29.04136-16.16492-14.52166-3.83607-29.1796-9.45266-29.1796-27.80892 0-20.0005 18.90531-29.58993 36.57623-29.58993 20.41229 0 39.17936 8.90458 39.17936 31.50772H822.2937c-.68534-11.78126-9.04184-14.79472-19.31612-14.79472-6.84953 0-14.79424 2.87668-14.79424 11.09592 0 7.53438 4.65721 8.49327 29.17863 14.79472 7.12308 1.78101 29.04136 6.30144 29.04136 28.49426 0 17.94544-14.10986 31.36997-40.68536 31.36997-21.64473 0-41.91879-10.6851-41.64523-34.79474h20.82213zM903.46234 2.29407c30.18442 0 47.941 22.5364 47.941 51.4925 0 28.1369-17.75658 50.6728-47.941 50.6728-30.1854 0-47.94196-22.5359-47.94196-50.6728 0-28.9561 17.75657-51.4925 47.94196-51.4925zm0 84.136c19.25812 0 26.49703-16.38994 26.49703-32.6435 0-17.07325-7.2389-33.46319-26.49703-33.46319-19.2591 0-26.498 16.38994-26.498 33.46319 0 16.25356 7.2389 32.6435 26.498 32.6435zM1052.07 64.5448c0 26.84197-15.85474 39.91457-42.418 39.91457-26.7026 0-42.27963-12.93423-42.27963-39.91457V2.79515h21.8351V64.5448c0 10.84788 2.78215 21.5564 20.44453 21.5564 15.57603 0 20.5829-6.81451 20.5829-21.5564V2.79515h21.8351V64.5448zm18.55007-62.5533h53.9797c17.94674 0 29.30444 12.47862 29.30444 27.62105 0 11.77768-4.76766 20.61056-15.84438 25.09724v.28048c10.79673 2.8043 13.88052 13.32006 14.58197 23.41535.42047 6.30906.28098 18.08623 4.2067 23.69484h-22.01295c-2.6643-6.30906-2.38333-15.98388-3.50525-23.97582-1.5424-10.51576-5.6086-15.14243-16.68533-15.14243h-22.01295v39.11825h-22.01195V1.9915zm22.01195 45.28731h24.1163c9.81432 0 15.14294-4.2062 15.14294-14.3015 0-9.67431-5.32862-13.88052-15.14293-13.88052h-24.1163v28.18202zm143.17615-9.92976c-1.36663-9.70437-10.66111-17.08537-21.32222-17.08537-19.27276 0-26.5168 16.40157-26.5168 33.48693 0 16.2651 7.24404 32.66665 26.5168 32.66665 13.12144 0 20.50146-9.02057 22.142-21.86858h20.77538c-2.18642 24.32891-18.99885 39.91069-42.91738 39.91069-30.20681 0-47.97598-22.5519-47.97598-50.70876 0-28.97664 17.76917-51.52903 47.97598-51.52903 21.4582 0 39.5003 12.5746 42.0976 35.12747h-20.77538zm37.83598-35.35755h74.87074v18.5072h-52.85879V41.9507h48.5126v17.1058h-48.5126v24.53627h53.9807v18.5077h-75.99265V1.9915z"/></svg>