<svg version="1.1" id="Layer_1" xmlns="http://www.w3.org/2000/svg" x="0" y="0" viewBox="0 0 421.3 53.1" xml:space="preserve"><style>.st0{fill:#fff}</style><path class="st0" d="M10.3 35.4V18.6H1.9v25.2h25.2v-8.4z"/><path class="st0" d="M43.9 1.8h-42v12.6h8.4v-4.2h25.2v25.2h-4.2v8.4h12.6zm20.2 0h9.2v34.1h20.4v7.7H64.1zm34.8 0h29.4v7.7h-20.2v9.7h17.5v7.2h-17.5v17.3h-9.2zm62.5 0h9.4l15.7 41.9H177l-3.2-9.3h-15.7l-3.3 9.3h-9.3zm-.9 25.7h10.9l-5.3-15.4h-.1zm35.9 2.3c0 5.6 4.3 7.7 9.3 7.7 3.2 0 8.2-.9 8.2-5.2 0-4.6-6.3-5.2-12.4-6.9-6.2-1.5-12.5-4.2-12.5-11.9C189 4.9 197.1.8 204.7.8c8.7 0 16.8 3.8 16.8 13.5h-8.9c-.3-5-3.8-6.3-8.3-6.3-2.9 0-6.3 1.2-6.3 4.8 0 3.2 2 3.7 12.5 6.3 3.1.7 12.4 2.8 12.4 12.2 0 7.7-6 13.4-17.4 13.4-9.3 0-18-4.6-17.8-14.9zm31.8-28h9.2v41.9h-9.2zm28.7 0h9.4L282 43.7h-9.6l-3.2-9.3h-15.7l-3.3 9.3h-9.3zm-.8 25.7H267l-5.3-15.4h-.1zm30.4 9.7h6.5v5.9c0 4.5-1.9 7.9-6.5 9.2v-2.9c2.6-.9 3.6-3.8 3.4-5.7h-3.5v-6.5zm32.3-35.4h5.6V39h22.2v4.7h-27.7V1.8zm32.6 0h5.6V39h22.2v4.7h-27.7V1.8zm62.1 12.6c-1.2-5.9-5.9-8.9-11.7-8.9-10 0-14.2 8.2-14.2 16.9 0 9.6 4.2 17.5 14.3 17.5 7.3 0 11.6-5.2 12.1-12.1h5.6c-1.1 10.5-7.5 16.8-18.1 16.8-13 0-19.4-9.6-19.4-21.8S389 .7 401.9.7c8.7 0 16 4.7 17.2 13.6h-5.6z"/></svg>
