<svg id="Layer_1" xmlns="http://www.w3.org/2000/svg" viewBox="0 0 474.6 28.2"><style>.st0,.st1{fill:#fff}.st1{opacity:.8}</style><path class="st0" d="M34.1.6h21.5v2.2h-9.5v24.9h-2.6V2.8H34V.6zm24 0h2.6v11.8h16.1V.6h2.6v27.1h-2.6V14.5H60.7v13.1h-2.6V.6zm26.8 0h18.7v2.2H87.5v9.8h15.1v2.2H87.5v10.7h16.3v2.2H84.9V.6zM247 .6h17.2v2.2h-14.6v9.8h13v2.2h-13v12.9H247V.6zm31.7-.6c8.5 0 12.8 6.7 12.8 14.1 0 7.4-4.3 14.1-12.8 14.1s-12.8-6.7-12.8-14.1c0-7.4 4.3-14.1 12.8-14.1zm0 26c7.1 0 10.2-6 10.2-11.9s-3-11.9-10.2-11.9c-7.2 0-10.2 6-10.2 11.9s3 11.9 10.2 11.9zM295.2.6h2.6v16.8c0 6.3 2.9 8.7 7.9 8.7s8-2.4 8-8.7V.6h2.6v17.3c0 5.6-3 10.3-10.6 10.3-7.5 0-10.5-4.7-10.5-10.3V.6zm26.3 0h2.9l15.8 22.9h.1V.6h2.6v27.1H340l-15.9-23h-.1v22.9h-2.6V.6zm26.7 0h9.4c8.2.2 12.5 4.6 12.5 13.6s-4.3 13.4-12.5 13.6h-9.4V.6zm2.6 24.9h5.5c7.8 0 11.2-3.2 11.2-11.4s-3.4-11.4-11.2-11.4h-5.5v22.8zM382.2.6h2.9l10.6 27.1h-2.8l-3.3-8.4h-12.3l-3.3 8.4h-2.8l11-27.1zM378.1 17h10.7l-5.2-13.9-5.5 13.9zM392.7.6h21.5v2.2h-9.5v24.9h-2.6V2.8h-9.5V.6zm24.2 0h2.6v27.1h-2.6V.6zm19.6-.6c8.5 0 12.8 6.7 12.8 14.1 0 7.4-4.3 14.1-12.8 14.1s-12.8-6.7-12.8-14.1c0-7.4 4.2-14.1 12.8-14.1zm0 26c7.1 0 10.2-6 10.2-11.9s-3-11.9-10.2-11.9c-7.2 0-10.2 6-10.2 11.9s3 11.9 10.2 11.9zM453.2.6h2.9l15.8 22.9h.1V.6h2.6v27.1h-2.9l-15.8-23h-.1v22.9h-2.6V.6z"/><g><path class="st0" d="M110.9.6h8.3v20.1h11.9v6.9h-20.3V.6zm25.7 0h8.3v27h-8.3V.6zm14.5 0h8.5l7.9 14.4h.1V.6h7.9v27h-8.1l-8.3-14.7h-.1v14.7h-7.9V.6zm55.1 16.5c0 7.5-4 11.1-12.3 11.1s-12.3-3.6-12.3-11.1V.6h8.3v14.7c0 2.7 0 6.2 4 6.2 3.9 0 3.9-3.5 3.9-6.2V.6h8.3v16.5zm13.2-3.9L210.5.6h9.8l4.1 7.3 4-7.3h9.2l-8.7 12.7 9.6 14.3h-10l-4.6-8.1-4.8 8.1h-9.5l9.8-14.4z"/></g><g><path class="st1" d="M5.4 22.3L5.4 11.4 0 11.4 0 27.7 16.3 27.7 16.3 22.3z"/><path class="st0" d="M27.1 0.6L0 0.6 0 8.7 5.4 8.7 5.4 6 21.7 6 21.7 22.3 19 22.3 19 27.7 27.1 27.7z"/></g></svg>